<?xml version="1.0" encoding="UTF-8" standalone="no"?>
<!-- Created with Inkscape (http://www.inkscape.org/) -->

<svg
   xmlns:dc="http://purl.org/dc/elements/1.1/"
   xmlns:cc="http://creativecommons.org/ns#"
   xmlns:rdf="http://www.w3.org/1999/02/22-rdf-syntax-ns#"
   xmlns:svg="http://www.w3.org/2000/svg"
   xmlns="http://www.w3.org/2000/svg"
   xmlns:sodipodi="http://sodipodi.sourceforge.net/DTD/sodipodi-0.dtd"
   xmlns:inkscape="http://www.inkscape.org/namespaces/inkscape"
   width="210mm"
   height="297mm"
   viewBox="0 0 744.09448819 1052.3622047"
   id="svg8817"
   version="1.1"
   inkscape:version="0.91 r13725"
   sodipodi:docname="basical_drawing.svg">
  <defs
     id="defs8819" />
  <sodipodi:namedview
     id="base"
     pagecolor="#ffffff"
     bordercolor="#666666"
     borderopacity="1.0"
     inkscape:pageopacity="0.0"
     inkscape:pageshadow="2"
     inkscape:zoom="0.7"
     inkscape:cx="216.7499"
     inkscape:cy="783.90841"
     inkscape:document-units="px"
     inkscape:current-layer="layer1"
     showgrid="false"
     inkscape:window-width="1920"
     inkscape:window-height="1053"
     inkscape:window-x="-9"
     inkscape:window-y="-9"
     inkscape:window-maximized="1" />
  <metadata
     id="metadata8822">
    <rdf:RDF>
      <cc:Work
         rdf:about="">
        <dc:format>image/svg+xml</dc:format>
        <dc:type
           rdf:resource="http://purl.org/dc/dcmitype/StillImage" />
        <dc:title></dc:title>
      </cc:Work>
    </rdf:RDF>
  </metadata>
  <g
     inkscape:label="Capa 1"
     inkscape:groupmode="layer"
     id="layer1">
    <path
       style="fill:none;fill-rule:evenodd;stroke:#ff6600;stroke-width:0.70324969px;stroke-linecap:butt;stroke-linejoin:miter;stroke-opacity:1"
       d="m 290.96637,29.035287 c 0,0 -105.47285,155.454403 -103.89862,154.667253 1.57421,-0.78708 133.41527,-19.67778 133.41527,-19.67778 z"
       id="path35472"
       inkscape:connector-curvature="0"
       inkscape:export-xdpi="300"
       inkscape:export-ydpi="300" />
    <path
       style="fill:none;fill-rule:evenodd;stroke:#ff6600;stroke-width:0.70324969px;stroke-linecap:butt;stroke-linejoin:miter;stroke-opacity:1"
       d="m 187.06775,182.91546 68.08509,114.91817"
       id="path35474"
       inkscape:connector-curvature="0"
       inkscape:export-xdpi="300"
       inkscape:export-ydpi="300" />
    <path
       style="fill:none;fill-rule:evenodd;stroke:#ff6600;stroke-width:0.70324969px;stroke-linecap:butt;stroke-linejoin:miter;stroke-opacity:1"
       d="M 320.87658,163.2377 376.3679,282.485 253.57861,296.65295 421.23322,440.69424 375.58078,281.30432"
       id="path35476"
       inkscape:connector-curvature="0"
       inkscape:export-xdpi="300"
       inkscape:export-ydpi="300" />
    <path
       style="fill:none;fill-rule:evenodd;stroke:#ff6600;stroke-width:0.70324969px;stroke-linecap:butt;stroke-linejoin:miter;stroke-opacity:1"
       d="m 516.86717,281.30432 -44.86532,158.20925 c 0,0 168.83529,-142.46708 167.26104,-142.86062 -1.5742,-0.39353 -122.39572,-15.34863 -122.39572,-15.34863 z"
       id="path35478"
       inkscape:connector-curvature="0"
       inkscape:export-xdpi="300"
       inkscape:export-ydpi="300" />
    <path
       style="fill:none;fill-rule:evenodd;stroke:#ff6600;stroke-width:0.70324969px;stroke-linecap:butt;stroke-linejoin:miter;stroke-opacity:1"
       d="M 637.68869,297.83363 707.34802,183.309 572.75206,163.63123 516.47363,281.69786"
       id="path35480"
       inkscape:connector-curvature="0"
       inkscape:export-xdpi="300"
       inkscape:export-ydpi="300" />
    <path
       style="fill:none;fill-rule:evenodd;stroke:#ff6600;stroke-width:0.70324969px;stroke-linecap:butt;stroke-linejoin:miter;stroke-opacity:1"
       d="M 706.95445,184.48969 602.26871,27.854662 573.1456,163.63123"
       id="path35482"
       inkscape:connector-curvature="0"
       inkscape:export-xdpi="300"
       inkscape:export-ydpi="300" />
    <path
       style="fill:none;fill-rule:evenodd;stroke:#000000;stroke-width:1.47682428;stroke-linecap:butt;stroke-linejoin:miter;stroke-miterlimit:4;stroke-dasharray:none;stroke-opacity:1"
       d="m 586.92004,15.26088 -33.4522,147.97682 12.59378,15.74215 146.00905,20.85847 12.20022,-18.4971 L 613.68182,12.112429 Z"
       id="path35484"
       inkscape:connector-curvature="0"
       inkscape:export-xdpi="300"
       inkscape:export-ydpi="300" />
    <path
       style="fill:none;fill-rule:evenodd;stroke:#000000;stroke-width:1.47682428;stroke-linecap:butt;stroke-linejoin:miter;stroke-miterlimit:4;stroke-dasharray:none;stroke-opacity:1"
       d="m 522.37695,262.80723 130.26686,20.07131 4.32908,19.28423 -184.57747,161.75122 -16.52932,-11.01955 46.83309,-180.24833 z"
       id="path35486"
       inkscape:connector-curvature="0"
       inkscape:export-xdpi="300"
       inkscape:export-ydpi="300" />
    <path
       style="fill:none;fill-rule:evenodd;stroke:#000000;stroke-width:1.47682428;stroke-linecap:butt;stroke-linejoin:miter;stroke-miterlimit:4;stroke-dasharray:none;stroke-opacity:1"
       d="m 390.53589,273.03966 48.01376,182.60967 -15.74222,7.08406 -187.33238,-161.35775 5.11624,-20.46487 131.44749,-17.71001 z"
       id="path35488"
       inkscape:connector-curvature="0"
       inkscape:export-xdpi="300"
       inkscape:export-ydpi="300" />
    <path
       style="fill:none;fill-rule:evenodd;stroke:#000000;stroke-width:1.47682428;stroke-linecap:butt;stroke-linejoin:miter;stroke-miterlimit:4;stroke-dasharray:none;stroke-opacity:1"
       d="m 280.34037,11.718878 24.79399,1.967766 35.02643,149.551056 -12.59376,15.34865 -146.79618,21.6455 c 0,0 -15.34866,-16.92285 -13.38089,-19.28416 1.96779,-2.36134 112.95041,-169.228812 112.95041,-169.228812 z"
       id="path35490"
       inkscape:connector-curvature="0"
       inkscape:export-xdpi="300"
       inkscape:export-ydpi="300" />
    <path
       style="fill:none;fill-rule:evenodd;stroke:#ff6600;stroke-width:0.70324969px;stroke-linecap:butt;stroke-linejoin:miter;stroke-opacity:1"
       d="m 291.75348,28.641741 c 1.57422,0 155.06083,59.033327 155.06083,59.033327 l 0.39357,76.743312 -127.90552,-0.78715"
       id="path35492"
       inkscape:connector-curvature="0"
       inkscape:export-xdpi="300"
       inkscape:export-ydpi="300" />
    <path
       style="opacity:0.37000002;fill:none;fill-rule:evenodd;stroke:#00ccff;stroke-width:4.41868544;stroke-linecap:butt;stroke-linejoin:miter;stroke-miterlimit:4;stroke-dasharray:none;stroke-opacity:1"
       d="m 321.14525,163.39075 125.75185,0.8584 0,-23.60532 0.42918,-54.077575"
       id="path9503"
       inkscape:connector-curvature="0"
       inkscape:export-xdpi="300"
       inkscape:export-ydpi="300" />
    <path
       style="fill:none;fill-rule:evenodd;stroke:#ff6600;stroke-width:0.70324969px;stroke-linecap:butt;stroke-linejoin:miter;stroke-opacity:1"
       d="M 601.87516,29.42881 446.02721,87.675068"
       id="path35494"
       inkscape:connector-curvature="0"
       inkscape:export-xdpi="300"
       inkscape:export-ydpi="300" />
    <path
       style="fill:none;fill-rule:evenodd;stroke:#ff6600;stroke-width:0.70324969px;stroke-linecap:butt;stroke-linejoin:miter;stroke-opacity:1"
       d="m 447.60143,164.41838 126.33128,-0.78715"
       id="path35496"
       inkscape:connector-curvature="0"
       inkscape:export-xdpi="300"
       inkscape:export-ydpi="300" />
    <path
       style="fill:none;fill-rule:evenodd;stroke:#ff6600;stroke-width:0.70324969px;stroke-linecap:butt;stroke-linejoin:miter;stroke-opacity:1"
       d="M 516.08007,280.12363 446.42077,87.281534 375.58078,283.27208"
       id="path35498"
       inkscape:connector-curvature="0"
       inkscape:export-xdpi="300"
       inkscape:export-ydpi="300" />
    <circle
       style="opacity:0.8;fill:#000000;stroke:#000000;stroke-width:1.47682428;stroke-miterlimit:4;stroke-dasharray:none"
       id="path35500"
       cx="320.53537"
       cy="163.32753"
       r="3.4190602"
       inkscape:export-xdpi="300"
       inkscape:export-ydpi="300" />
    <circle
       style="opacity:0.8;fill:#000000;stroke:#000000;stroke-width:1.47682428;stroke-miterlimit:4;stroke-dasharray:none"
       id="path35500-1"
       cx="446.82001"
       cy="164.09962"
       r="3.4190602"
       inkscape:export-xdpi="300"
       inkscape:export-ydpi="300" />
    <circle
       style="opacity:0.8;fill:#000000;stroke:#000000;stroke-width:1.47682428;stroke-miterlimit:4;stroke-dasharray:none"
       id="path35500-1-8"
       cx="447.2612"
       cy="141.15878"
       r="3.4190602"
       inkscape:export-xdpi="300"
       inkscape:export-ydpi="300" />
    <circle
       style="opacity:0.8;fill:#000000;stroke:#000000;stroke-width:1.47682428;stroke-miterlimit:4;stroke-dasharray:none"
       id="path35500-1-8-0"
       cx="446.82001"
       cy="86.895103"
       r="3.4190602"
       inkscape:export-xdpi="300"
       inkscape:export-ydpi="300" />
    <circle
       style="opacity:0.8;fill:#000000;stroke:#000000;stroke-width:1.47682428;stroke-miterlimit:4;stroke-dasharray:none"
       id="path35500-1-5"
       cx="190.65639"
       cy="181.80226"
       r="3.4190602"
       inkscape:export-xdpi="300"
       inkscape:export-ydpi="300" />
    <circle
       style="opacity:0.8;fill:#000000;stroke:#000000;stroke-width:1.47682428;stroke-miterlimit:4;stroke-dasharray:none"
       id="path35500-1-5-6"
       cx="254.91888"
       cy="296.60126"
       r="3.4190602"
       inkscape:export-xdpi="300"
       inkscape:export-ydpi="300" />
    <circle
       style="opacity:0.8;fill:#000000;stroke:#000000;stroke-width:1.47682428;stroke-miterlimit:4;stroke-dasharray:none"
       id="path35500-1-5-6-5"
       cx="372.8374"
       cy="283.49924"
       r="3.4190602"
       inkscape:export-xdpi="300"
       inkscape:export-ydpi="300" />
    <circle
       style="opacity:0.8;fill:#000000;stroke:#000000;stroke-width:1.47682428;stroke-miterlimit:4;stroke-dasharray:none"
       id="path35500-1-5-6-5-7"
       cx="292.97726"
       cy="29.568947"
       r="3.4190602"
       inkscape:export-xdpi="300"
       inkscape:export-ydpi="300" />
    <text
       xml:space="preserve"
       style="font-style:normal;font-weight:normal;font-size:28.82725716px;line-height:125%;font-family:sans-serif;letter-spacing:0px;word-spacing:0px;fill:#000000;fill-opacity:1;stroke:none;stroke-width:1px;stroke-linecap:butt;stroke-linejoin:miter;stroke-opacity:1"
       x="27.284698"
       y="39.953342"
       id="text9417"
       sodipodi:linespacing="125%"
       inkscape:export-xdpi="300"
       inkscape:export-ydpi="300"><tspan
         sodipodi:role="line"
         id="tspan9419"
         x="27.284698"
         y="39.953342">A: 38</tspan><tspan
         sodipodi:role="line"
         x="27.284698"
         y="75.987411"
         id="tspan9439">B: 41.5</tspan><tspan
         sodipodi:role="line"
         x="27.284698"
         y="112.02148"
         id="tspan9441">C: 39.3</tspan><tspan
         sodipodi:role="line"
         x="27.284698"
         y="148.05556"
         id="tspan9443">D: 40.1</tspan><tspan
         sodipodi:role="line"
         x="27.284698"
         y="184.08963"
         id="tspan9445">E: 55.8</tspan><tspan
         sodipodi:role="line"
         x="27.284698"
         y="220.1237"
         id="tspan9447">F: 39.4</tspan><tspan
         sodipodi:role="line"
         x="27.284698"
         y="256.15778"
         id="tspan9449">G: 36.7</tspan><tspan
         sodipodi:role="line"
         x="27.284698"
         y="292.19183"
         id="tspan9451">H: 65.7</tspan><tspan
         sodipodi:role="line"
         x="27.284698"
         y="328.22592"
         id="tspan9453">I:  49</tspan><tspan
         sodipodi:role="line"
         x="27.284698"
         y="364.25998"
         id="tspan9455">J:  50</tspan><tspan
         sodipodi:role="line"
         x="27.284698"
         y="400.29407"
         id="tspan9457">K: 61.9</tspan><tspan
         sodipodi:role="line"
         x="27.284698"
         y="436.32813"
         id="tspan9459">L:  7.8</tspan><tspan
         sodipodi:role="line"
         x="27.284698"
         y="472.36221"
         id="tspan9461">M: 15</tspan></text>
    <path
       inkscape:connector-curvature="0"
       id="path9464"
       style="font-style:normal;font-weight:normal;font-size:medium;line-height:125%;font-family:sans-serif;letter-spacing:0px;word-spacing:0px;fill:#000000;fill-opacity:1;stroke:none;stroke-width:1px;stroke-linecap:butt;stroke-linejoin:miter;stroke-opacity:1"
       d="m 384.80088,159.49451 -1.86069,0 -1.28751,-3.65966 -5.67909,0 -1.28749,3.65966 -1.77251,0 4.7796,-13.13071 2.32808,0 4.77961,13.13071 z m -3.68611,-5.15881 -2.30164,-6.44631 -2.31043,6.44631 4.61207,0 z"
       inkscape:export-xdpi="300"
       inkscape:export-ydpi="300" />
    <path
       inkscape:connector-curvature="0"
       id="path9466"
       style="font-style:normal;font-weight:normal;font-size:medium;line-height:125%;font-family:sans-serif;letter-spacing:0px;word-spacing:0px;fill:#000000;fill-opacity:1;stroke:none;stroke-width:1px;stroke-linecap:butt;stroke-linejoin:miter;stroke-opacity:1"
       d="m 318.15576,96.657003 q 0,0.978847 -0.37038,1.728419 -0.37038,0.749571 -0.9965,1.234588 -0.74074,0.58202 -1.63141,0.82894 -0.88184,0.24692 -2.24871,0.24692 l -4.65616,0 0,-13.130711 3.88895,0 q 1.43743,0 2.15171,0.10586 0.71429,0.10586 1.36687,0.440925 0.72311,0.379192 1.04939,0.978858 0.32629,0.590829 0.32629,1.419772 0,0.934755 -0.4762,1.596142 -0.47619,0.652572 -1.26986,1.049404 l 0,0.07054 q 1.33159,0.27338 2.0988,1.172857 0.76721,0.890674 0.76721,2.257539 z m -2.93656,-5.9172 q 0,-0.476191 -0.15874,-0.802478 -0.15872,-0.326285 -0.51147,-0.529109 -0.41446,-0.238101 -1.00529,-0.291008 -0.59085,-0.06173 -1.46388,-0.06173 l -2.08115,0 0,3.79195 2.25752,0 q 0.82013,0 1.30513,-0.07934 0.48503,-0.08814 0.89949,-0.35274 0.41447,-0.264553 0.58201,-0.679025 0.17638,-0.423285 0.17638,-0.996475 z m 1.11994,5.987745 q 0,-0.793663 -0.23808,-1.261041 -0.23811,-0.467378 -0.86421,-0.793663 -0.4233,-0.220463 -1.03177,-0.282182 -0.59966,-0.07054 -1.46387,-0.07054 l -2.74254,0 0,4.885434 2.31044,0 q 1.1464,0 1.87833,-0.114662 0.73193,-0.123463 1.19931,-0.440924 0.49383,-0.343913 0.72312,-0.784838 0.22927,-0.440936 0.22927,-1.13759 z"
       inkscape:export-xdpi="300"
       inkscape:export-ydpi="300" />
    <path
       inkscape:connector-curvature="0"
       id="path9468"
       style="font-style:normal;font-weight:normal;font-size:medium;line-height:125%;font-family:sans-serif;letter-spacing:0px;word-spacing:0px;fill:#000000;fill-opacity:1;stroke:none;stroke-width:1px;stroke-linecap:butt;stroke-linejoin:miter;stroke-opacity:1"
       d="m 356.9554,212.19052 q -0.48501,0.21163 -0.88184,0.39683 -0.38802,0.18519 -1.02293,0.388 -0.53793,0.16756 -1.17287,0.28219 -0.62611,0.12347 -1.3845,0.12347 -1.42859,0 -2.60145,-0.39683 -1.16405,-0.40566 -2.02826,-1.26105 -0.84657,-0.83776 -1.32276,-2.12525 -0.4762,-1.29631 -0.4762,-3.0071 0,-1.6226 0.45855,-2.90128 0.45858,-1.27868 1.32278,-2.16052 0.83775,-0.8554 2.01944,-1.30514 1.19049,-0.44974 2.63671,-0.44974 1.05822,0 2.10763,0.25574 1.0582,0.25573 2.3457,0.89948 l 0,2.07234 -0.13227,0 q -1.08468,-0.90832 -2.15171,-1.32277 -1.06703,-0.41448 -2.28398,-0.41448 -0.99649,0 -1.79897,0.32629 -0.79366,0.31747 -1.41978,0.99649 -0.60848,0.66139 -0.95239,1.67551 -0.33511,1.00531 -0.33511,2.32808 0,1.3845 0.37038,2.38098 0.37919,0.99649 0.97004,1.62262 0.61729,0.65255 1.43741,0.97001 0.82893,0.30866 1.74606,0.30866 1.26104,0 2.36335,-0.4321 1.10231,-0.43211 2.06351,-1.29632 l 0.12346,0 0,2.04589 z"
       inkscape:export-xdpi="300"
       inkscape:export-ydpi="300" />
    <path
       inkscape:connector-curvature="0"
       id="path9470"
       style="font-style:normal;font-weight:normal;font-size:medium;line-height:125%;font-family:sans-serif;letter-spacing:0px;word-spacing:0px;fill:#000000;fill-opacity:1;stroke:none;stroke-width:1px;stroke-linecap:butt;stroke-linejoin:miter;stroke-opacity:1"
       d="m 265.8142,163.24288 q 0,1.79014 -0.78486,3.2452 -0.77602,1.45504 -2.07233,2.25751 -0.89949,0.55558 -2.01061,0.8025 -1.10232,0.24691 -2.9101,0.24691 l -3.31575,0 0,-13.13071 3.28047,0 q 1.92243,0 3.05119,0.2822 1.13759,0.27336 1.92244,0.75838 1.34041,0.83776 2.08997,2.23108 0.74958,1.39332 0.74958,3.30693 z m -1.82542,-0.0265 q 0,-1.54323 -0.53794,-2.60145 -0.53793,-1.05822 -1.60497,-1.66669 -0.77601,-0.44094 -1.64904,-0.60847 -0.87304,-0.17638 -2.08999,-0.17638 l -1.64024,0 0,10.13243 1.64024,0 q 1.26105,0 2.19579,-0.18519 0.94359,-0.18519 1.72843,-0.68783 0.97885,-0.62612 1.46387,-1.64907 0.49385,-1.02294 0.49385,-2.55735 z"
       inkscape:export-xdpi="300"
       inkscape:export-ydpi="300" />
    <path
       inkscape:connector-curvature="0"
       id="path9472"
       style="font-style:normal;font-weight:normal;font-size:medium;line-height:125%;font-family:sans-serif;letter-spacing:0px;word-spacing:0px;fill:#000000;fill-opacity:1;stroke:none;stroke-width:1px;stroke-linecap:butt;stroke-linejoin:miter;stroke-opacity:1"
       d="m 243.82806,96.403996 -8.65093,0 0,-13.130719 8.65093,0 0,1.55206 -6.90486,0 0,3.597941 6.90486,0 0,1.552049 -6.90486,0 0,4.87662 6.90486,0 0,1.552049 z"
       inkscape:export-xdpi="300"
       inkscape:export-ydpi="300" />
    <path
       inkscape:connector-curvature="0"
       id="path9474"
       style="font-style:normal;font-weight:normal;font-size:medium;line-height:125%;font-family:sans-serif;letter-spacing:0px;word-spacing:0px;fill:#000000;fill-opacity:1;stroke:none;stroke-width:1px;stroke-linecap:butt;stroke-linejoin:miter;stroke-opacity:1"
       d="m 237.39558,239.33273 -6.64032,0 0,3.70374 5.70556,0 0,1.55207 -5.70556,0 0,6.32283 -1.74604,0 0,-13.13071 8.38636,0 0,1.55207 z"
       inkscape:export-xdpi="300"
       inkscape:export-ydpi="300" />
    <path
       inkscape:connector-curvature="0"
       id="path9476"
       style="font-style:normal;font-weight:normal;font-size:medium;line-height:125%;font-family:sans-serif;letter-spacing:0px;word-spacing:0px;fill:#000000;fill-opacity:1;stroke:none;stroke-width:1px;stroke-linecap:butt;stroke-linejoin:miter;stroke-opacity:1"
       d="m 321.14817,286.42226 q -1.07585,0.49384 -2.35453,0.8642 -1.26986,0.36156 -2.46035,0.36156 -1.53443,0 -2.81311,-0.42329 -1.27866,-0.42328 -2.17815,-1.26985 -0.90831,-0.8554 -1.40215,-2.13408 -0.49382,-1.28749 -0.49382,-3.0071 0,-3.1482 1.83423,-4.9648 1.84307,-1.82542 5.053,-1.82542 1.11995,0 2.28398,0.27337 1.17286,0.26456 2.52208,0.90831 l 0,2.07233 -0.15873,0 q -0.27337,-0.21164 -0.79366,-0.55555 -0.5203,-0.34394 -1.02294,-0.57321 -0.60848,-0.27336 -1.3845,-0.44974 -0.76721,-0.1852 -1.74606,-0.1852 -2.20462,0 -3.49213,1.41979 -1.27868,1.41095 -1.27868,3.82721 0,2.54854 1.34042,3.96831 1.3404,1.41096 3.65085,1.41096 0.84658,0 1.68432,-0.16754 0.84659,-0.16755 1.48151,-0.43211 l 0,-3.21875 -3.51857,0 0,-1.53441 5.24699,0 0,5.63501 z"
       inkscape:export-xdpi="300"
       inkscape:export-ydpi="300" />
    <path
       inkscape:connector-curvature="0"
       id="path9478"
       style="font-style:normal;font-weight:normal;font-size:medium;line-height:125%;font-family:sans-serif;letter-spacing:0px;word-spacing:0px;fill:#000000;fill-opacity:1;stroke:none;stroke-width:1px;stroke-linecap:butt;stroke-linejoin:miter;stroke-opacity:1"
       d="m 340.25223,360.7833 -1.74606,0 0,-6.42867 -6.55214,0 0,6.42867 -1.74605,0 0,-13.13072 1.74605,0 0,5.14999 6.55214,0 0,-5.14999 1.74606,0 0,13.13072 z"
       inkscape:export-xdpi="300"
       inkscape:export-ydpi="300" />
    <path
       inkscape:connector-curvature="0"
       id="path9480"
       style="font-style:normal;font-weight:normal;font-size:medium;line-height:125%;font-family:sans-serif;letter-spacing:0px;word-spacing:0px;fill:#000000;fill-opacity:1;stroke:none;stroke-width:1px;stroke-linecap:butt;stroke-linejoin:miter;stroke-opacity:1"
       d="m 405.07085,360.35411 -5.18526,0 0,-1.34042 1.7196,0 0,-10.44989 -1.7196,0 0,-1.34041 5.18526,0 0,1.34041 -1.71961,0 0,10.44989 1.71961,0 0,1.34042 z"
       inkscape:export-xdpi="300"
       inkscape:export-ydpi="300" />
    <path
       inkscape:connector-curvature="0"
       id="path9482"
       style="font-style:normal;font-weight:normal;font-size:medium;line-height:125%;font-family:sans-serif;letter-spacing:0px;word-spacing:0px;fill:#000000;fill-opacity:1;stroke:none;stroke-width:1px;stroke-linecap:butt;stroke-linejoin:miter;stroke-opacity:1"
       d="m 366.0938,47.068213 q 0,1.728418 -1.05822,2.663174 -1.04939,0.934766 -2.82191,0.934766 -0.42329,0 -1.12877,-0.07934 -0.70548,-0.07054 -1.18167,-0.176381 l 0,-1.631409 0.097,0 q 0.36155,0.123452 0.89066,0.25573 0.52911,0.132277 1.08468,0.132277 0.8113,0 1.2875,-0.185184 0.485,-0.185195 0.71429,-0.529109 0.2381,-0.35274 0.29983,-0.86421 0.0705,-0.51147 0.0705,-1.18167 l 0,-7.663269 -2.77782,0 0,-1.393319 4.52388,0 0,9.717963 z"
       inkscape:export-xdpi="300"
       inkscape:export-ydpi="300" />
    <path
       inkscape:connector-curvature="0"
       id="path9484"
       style="font-style:normal;font-weight:normal;font-size:medium;line-height:125%;font-family:sans-serif;letter-spacing:0px;word-spacing:0px;fill:#000000;fill-opacity:1;stroke:none;stroke-width:1px;stroke-linecap:butt;stroke-linejoin:miter;stroke-opacity:1"
       d="m 417.82191,215.28884 -2.26635,0 -5.19407,-5.84665 -1.30515,1.39333 0,4.45332 -1.74606,0 0,-13.13071 1.74606,0 0,6.85196 6.37576,-6.85196 2.11644,0 -5.86428,6.17294 6.13765,6.95777 z"
       inkscape:export-xdpi="300"
       inkscape:export-ydpi="300" />
    <path
       inkscape:connector-curvature="0"
       id="path9486"
       style="font-style:normal;font-weight:normal;font-size:medium;line-height:125%;font-family:sans-serif;letter-spacing:0px;word-spacing:0px;fill:#000000;fill-opacity:1;stroke:none;stroke-width:1px;stroke-linecap:butt;stroke-linejoin:miter;stroke-opacity:1"
       d="m 461.14286,159.49451 -8.30701,0 0,-13.13071 1.74606,0 0,11.57866 6.56095,0 0,1.55205 z"
       inkscape:export-xdpi="300"
       inkscape:export-ydpi="300" />
    <path
       inkscape:connector-curvature="0"
       id="path9488"
       style="font-style:normal;font-weight:normal;font-size:medium;line-height:125%;font-family:sans-serif;letter-spacing:0px;word-spacing:0px;fill:#000000;fill-opacity:1;stroke:none;stroke-width:1px;stroke-linecap:butt;stroke-linejoin:miter;stroke-opacity:1"
       d="m 462.99417,126.44709 -1.74607,0 0,-11.3141 -3.65084,7.69854 -1.04059,0 -3.62439,-7.69854 0,11.3141 -1.63142,0 0,-13.1307 2.38099,0 3.50093,7.31051 3.38631,-7.31051 2.42508,0 0,13.1307 z"
       inkscape:export-xdpi="300"
       inkscape:export-ydpi="300" />
    <circle
       style="opacity:0.37000002;fill:none;stroke:#ff6600;stroke-width:1.69949448;stroke-miterlimit:4;stroke-dasharray:5.09848355, 1.69949452;stroke-dashoffset:0"
       id="path9505"
       cx="446.07318"
       cy="139.35629"
       r="53.934059"
       inkscape:export-xdpi="300"
       inkscape:export-ydpi="300" />
    <path
       style="fill:#ff6600;fill-rule:evenodd;stroke:#ff6600;stroke-width:0.87395525px;stroke-linecap:butt;stroke-linejoin:miter;stroke-opacity:1"
       d="m 496.464,119.87329 -4.17362,13.24778 14.27338,-2.91881 z"
       id="path9522"
       inkscape:connector-curvature="0"
       inkscape:export-xdpi="300"
       inkscape:export-ydpi="300" />
  </g>
</svg>
